<svg width="1500" height="500" viewBox="0 0 1500 500" xmlns="http://www.w3.org/2000/svg">
  <defs>
    <radialGradient id="glowA" cx="26%" cy="0%" r="75%">
      <stop offset="0%" stop-color="#00c805" stop-opacity="0.14"/>
      <stop offset="100%" stop-color="#00c805" stop-opacity="0"/>
    </radialGradient>
    <radialGradient id="glowB" cx="88%" cy="8%" r="55%">
      <stop offset="0%" stop-color="#00c805" stop-opacity="0.09"/>
      <stop offset="100%" stop-color="#00c805" stop-opacity="0"/>
    </radialGradient>
    <linearGradient id="fade" x1="0" y1="0" x2="1" y2="0">
      <stop offset="0%" stop-color="#060a07" stop-opacity="1"/>
      <stop offset="100%" stop-color="#060a07" stop-opacity="0"/>
    </linearGradient>
  </defs>

  <rect width="1500" height="500" fill="#060a07"/>
  <rect width="1500" height="500" fill="url(#glowA)"/>
  <rect width="1500" height="500" fill="url(#glowB)"/>

  <!-- right-side echo of the product's own premium candle chart -->
  <g font-family="-apple-system,'Segoe UI',ui-sans-serif,system-ui,sans-serif">
    <line x1="860" y1="330" x2="1462" y2="330" stroke="#1e3022" stroke-width="2" stroke-dasharray="5 7"/>
    <g stroke-linecap="round">
      <line x1="903" y1="298" x2="903" y2="362" stroke="#5b6773" stroke-width="2.5"/>
      <rect x="890" y="312" width="26" height="38" rx="4" fill="#5b6773"/>

      <line x1="945" y1="278" x2="945" y2="342" stroke="#1fae2b" stroke-width="2.5"/>
      <rect x="932" y="292" width="26" height="42" rx="4" fill="#1fae2b"/>

      <line x1="987" y1="312" x2="987" y2="372" stroke="#5b6773" stroke-width="2.5"/>
      <rect x="974" y="326" width="26" height="34" rx="4" fill="#5b6773"/>

      <line x1="1029" y1="258" x2="1029" y2="332" stroke="#1fae2b" stroke-width="2.5"/>
      <rect x="1016" y="272" width="26" height="48" rx="4" fill="#1fae2b"/>

      <line x1="1071" y1="292" x2="1071" y2="352" stroke="#5b6773" stroke-width="2.5"/>
      <rect x="1058" y="306" width="26" height="34" rx="4" fill="#5b6773"/>

      <line x1="1113" y1="238" x2="1113" y2="312" stroke="#00c805" stroke-width="2.5"/>
      <rect x="1100" y="252" width="26" height="48" rx="4" fill="#00c805"/>

      <line x1="1155" y1="270" x2="1155" y2="342" stroke="#5b6773" stroke-width="2.5"/>
      <rect x="1142" y="284" width="26" height="42" rx="4" fill="#5b6773"/>

      <line x1="1197" y1="208" x2="1197" y2="292" stroke="#00c805" stroke-width="2.5"/>
      <rect x="1184" y="222" width="26" height="52" rx="4" fill="#00c805"/>

      <line x1="1239" y1="188" x2="1239" y2="262" stroke="#00c805" stroke-width="2.5"/>
      <rect x="1226" y="202" width="26" height="48" rx="4" fill="#00c805"/>

      <line x1="1281" y1="218" x2="1281" y2="282" stroke="#5b6773" stroke-width="2.5"/>
      <rect x="1268" y="232" width="26" height="42" rx="4" fill="#5b6773"/>

      <line x1="1323" y1="158" x2="1323" y2="242" stroke="#00c805" stroke-width="2.5"/>
      <rect x="1310" y="172" width="26" height="56" rx="4" fill="#00c805"/>

      <line x1="1365" y1="128" x2="1365" y2="212" stroke="#00c805" stroke-width="2.5"/>
      <rect x="1352" y="142" width="26" height="56" rx="4" fill="#00c805"/>

      <line x1="1407" y1="88" x2="1407" y2="182" stroke="#00c805" stroke-width="2.5"/>
      <rect x="1394" y="102" width="26" height="66" rx="4" fill="#00c805"/>
    </g>
    <rect x="800" y="0" width="120" height="500" fill="url(#fade)"/>
  </g>

  <!-- wordmark block -->
  <g font-family="-apple-system,'Segoe UI',ui-sans-serif,system-ui,sans-serif">
    <text x="97" y="176" font-size="19" font-weight="700" letter-spacing="3.5" fill="#00c805">IMPLIED OPEN &#183; PREDICT</text>
    <text x="93" y="288" font-size="126" font-weight="800" fill="#00c805" letter-spacing="-2">RWAM</text>
    <text x="98" y="329" font-size="26" font-weight="500" fill="#9aa7b4">Real World Assets Market on Robinhood Chain</text>
    <text x="98" y="368" font-size="20" fill="#64707d">Live premium tracker &#183; Non-custodial Predict markets</text>
  </g>

  <!-- url pill -->
  <rect x="97" y="398" width="192" height="42" rx="21" fill="none" stroke="#00c805" stroke-opacity="0.45" stroke-width="1.5"/>
  <text x="193" y="425" font-family="ui-monospace,'Cascadia Code',monospace" font-size="19" fill="#00c805" text-anchor="middle">rwam.digital</text>
</svg>
